<?xml version="1.0" encoding="UTF-8"?>
<svg id="Layer_1" data-name="Layer 1" xmlns="http://www.w3.org/2000/svg" viewBox="0 0 153.19 71.8">
  <defs>
    <style>
      .cls-1 {
        fill: #fff;
      }
    </style>
  </defs>
  <path class="cls-1" d="M.29,7.58h3.62l2.57,9.08,2.62-9.08h3.46l-4.44,12.32h-3.4L.29,7.58Z"/>
  <path class="cls-1" d="M67.46,49.91c1.04,1.3,1.56,2.84,1.56,4.62s-.52,3.35-1.56,4.64c-1.04,1.28-2.62,1.93-4.73,1.93s-3.69-.64-4.73-1.93c-1.04-1.28-1.56-2.83-1.56-4.64s.52-3.32,1.56-4.62c1.04-1.3,2.62-1.96,4.73-1.96s3.7.65,4.73,1.96ZM62.71,50.68c-.94,0-1.67.33-2.18,1-.51.67-.76,1.62-.76,2.85s.25,2.19.76,2.86c.51.67,1.23,1,2.18,1s1.66-.33,2.17-1c.5-.67.76-1.62.76-2.86s-.25-2.19-.76-2.85-1.23-1-2.17-1Z"/>
  <path class="cls-1" d="M85.44,31.15v2.97h-3.27v-2.97h3.27ZM85.44,35.59v12.32h-3.27v-12.32h3.27Z"/>
  <path class="cls-1" d="M151.77,31.28v16.63h-3.13v-1.71c-.46.73-.98,1.26-1.57,1.59-.59.33-1.32.5-2.19.5-1.44,0-2.65-.58-3.63-1.75-.98-1.16-1.47-2.66-1.47-4.48,0-2.1.48-3.75,1.45-4.96.97-1.21,2.26-1.81,3.88-1.81.75,0,1.41.16,1.99.49.58.33,1.05.78,1.41,1.36v-5.88h3.27ZM143.09,41.83c0,1.14.23,2.04.68,2.72.44.69,1.12,1.03,2.03,1.03s1.6-.34,2.08-1.02.71-1.56.71-2.63c0-1.51-.38-2.58-1.14-3.23-.47-.39-1.01-.59-1.63-.59-.94,0-1.63.36-2.07,1.07-.44.71-.66,1.59-.66,2.65Z"/>
</svg>